<?xml version="1.0" encoding="UTF-8" standalone="no"?>
<!-- Created with Inkscape (http://www.inkscape.org/) -->

<svg
   width="1024mm"
   height="1024mm"
   viewBox="0 0 1024 1024"
   version="1.1"
   id="svg1"
   inkscape:version="1.4 (86a8ad7, 2024-10-11)"
   sodipodi:docname="japan_gradient.svg"
   xmlns:inkscape="http://www.inkscape.org/namespaces/inkscape"
   xmlns:sodipodi="http://sodipodi.sourceforge.net/DTD/sodipodi-0.dtd"
   xmlns:xlink="http://www.w3.org/1999/xlink"
   xmlns="http://www.w3.org/2000/svg"
   xmlns:svg="http://www.w3.org/2000/svg">
  <sodipodi:namedview
     id="namedview1"
     pagecolor="#ffffff"
     bordercolor="#000000"
     borderopacity="0.25"
     inkscape:showpageshadow="2"
     inkscape:pageopacity="0.0"
     inkscape:pagecheckerboard="false"
     inkscape:deskcolor="#d1d1d1"
     inkscape:document-units="mm"
     showgrid="false"
     showborder="true"
     showguides="true"
     inkscape:zoom="0.13593896"
     inkscape:cx="2879.9691"
     inkscape:cy="1997.2199"
     inkscape:window-width="1920"
     inkscape:window-height="974"
     inkscape:window-x="-11"
     inkscape:window-y="-11"
     inkscape:window-maximized="1"
     inkscape:current-layer="layer1">
    <inkscape:grid
       id="grid2"
       units="mm"
       originx="0"
       originy="0"
       spacingx="0.99999994"
       spacingy="0.99999994"
       empcolor="#0099e5"
       empopacity="0.30196078"
       color="#0099e5"
       opacity="0.14901961"
       empspacing="5"
       enabled="true"
       visible="false" />
  </sodipodi:namedview>
  <defs
     id="defs1">
    <linearGradient
       id="linearGradient12"
       inkscape:collect="always">
      <stop
         style="stop-color:#000000;stop-opacity:1;"
         offset="0"
         id="stop12" />
      <stop
         style="stop-color:#00bea1;stop-opacity:1;"
         offset="1"
         id="stop14" />
    </linearGradient>
    <linearGradient
       id="swatch13"
       inkscape:swatch="solid">
      <stop
         style="stop-color:#000000;stop-opacity:1;"
         offset="0"
         id="stop13" />
    </linearGradient>
    <linearGradient
       id="linearGradient3">
      <stop
         style="stop-color:#000000;stop-opacity:1;"
         offset="0"
         id="stop2" />
      <stop
         style="stop-color:#c6dabd;stop-opacity:1;"
         offset="1"
         id="stop3" />
    </linearGradient>
    <linearGradient
       id="swatch162">
      <stop
         style="stop-color:#000000;stop-opacity:1;"
         offset="0"
         id="stop163" />
    </linearGradient>
    <linearGradient
       id="linearGradient85"
       inkscape:collect="always">
      <stop
         style="stop-color:#a4f3bd;stop-opacity:1;"
         offset="0"
         id="stop85" />
      <stop
         style="stop-color:#000000;stop-opacity:0;"
         offset="1"
         id="stop86" />
    </linearGradient>
    <radialGradient
       inkscape:collect="always"
       xlink:href="#linearGradient85"
       id="radialGradient1"
       cx="345"
       cy="289.90378"
       fx="345"
       fy="289.90378"
       r="150.86804"
       gradientTransform="matrix(1,0,0,1.1547028,0,-44.848917)"
       gradientUnits="userSpaceOnUse"
       spreadMethod="pad" />
    <radialGradient
       inkscape:collect="always"
       xlink:href="#linearGradient85"
       id="radialGradient2"
       cx="345"
       cy="289.90378"
       fx="345"
       fy="289.90378"
       r="150.86804"
       gradientTransform="matrix(1,0,0,1.1547028,0,-44.848917)"
       gradientUnits="userSpaceOnUse"
       spreadMethod="pad" />
    <radialGradient
       inkscape:collect="always"
       xlink:href="#linearGradient85"
       id="radialGradient4"
       cx="345"
       cy="289.90378"
       fx="345"
       fy="289.90378"
       r="150.86804"
       gradientTransform="matrix(1,0,0,1.1547028,0,-44.848917)"
       gradientUnits="userSpaceOnUse"
       spreadMethod="pad" />
    <radialGradient
       inkscape:collect="always"
       xlink:href="#linearGradient85"
       id="radialGradient6"
       cx="345"
       cy="289.90378"
       fx="345"
       fy="289.90378"
       r="150.86804"
       gradientTransform="matrix(1,0,0,1.1547028,0,-44.848917)"
       gradientUnits="userSpaceOnUse"
       spreadMethod="pad" />
    <radialGradient
       inkscape:collect="always"
       xlink:href="#linearGradient85"
       id="radialGradient8"
       cx="345"
       cy="289.90378"
       fx="345"
       fy="289.90378"
       r="150.86804"
       gradientTransform="matrix(1,0,0,1.1547028,0,-44.848917)"
       gradientUnits="userSpaceOnUse"
       spreadMethod="pad" />
    <radialGradient
       inkscape:collect="always"
       xlink:href="#linearGradient85"
       id="radialGradient10"
       cx="345"
       cy="289.90378"
       fx="345"
       fy="289.90378"
       r="150.86804"
       gradientTransform="matrix(1,0,0,1.1547028,0,-44.848917)"
       gradientUnits="userSpaceOnUse"
       spreadMethod="pad" />
    <radialGradient
       inkscape:collect="always"
       xlink:href="#linearGradient85"
       id="radialGradient12"
       cx="345"
       cy="289.90378"
       fx="345"
       fy="289.90378"
       r="150.86804"
       gradientTransform="matrix(1,0,0,1.1547028,0,-44.848917)"
       gradientUnits="userSpaceOnUse"
       spreadMethod="pad" />
    <radialGradient
       inkscape:collect="always"
       xlink:href="#linearGradient85"
       id="radialGradient14"
       cx="345"
       cy="289.90378"
       fx="345"
       fy="289.90378"
       r="150.86804"
       gradientTransform="matrix(1,0,0,1.1547028,0,-44.848917)"
       gradientUnits="userSpaceOnUse"
       spreadMethod="pad" />
    <radialGradient
       inkscape:collect="always"
       xlink:href="#linearGradient85"
       id="radialGradient16"
       cx="345"
       cy="289.90378"
       fx="345"
       fy="289.90378"
       r="150.86804"
       gradientTransform="matrix(1,0,0,1.1547028,0,-44.848917)"
       gradientUnits="userSpaceOnUse"
       spreadMethod="pad" />
    <radialGradient
       inkscape:collect="always"
       xlink:href="#linearGradient85"
       id="radialGradient18"
       cx="345"
       cy="289.90378"
       fx="345"
       fy="289.90378"
       r="150.86804"
       gradientTransform="matrix(1,0,0,1.1547028,0,-44.848917)"
       gradientUnits="userSpaceOnUse"
       spreadMethod="pad" />
    <linearGradient
       inkscape:collect="always"
       xlink:href="#linearGradient12"
       id="linearGradient14"
       x1="494.99945"
       y1="480.96317"
       x2="494.99945"
       y2="-420.77063"
       gradientUnits="userSpaceOnUse" />
    <linearGradient
       inkscape:collect="always"
       xlink:href="#linearGradient12"
       id="linearGradient15"
       gradientUnits="userSpaceOnUse"
       x1="494.99945"
       y1="480.96317"
       x2="494.99945"
       y2="-420.77063" />
  </defs>
  <g
     inkscape:label="Livello 1"
     inkscape:groupmode="layer"
     id="layer1">
    <g
       id="g503-0-2-1-1-3-3"
       transform="translate(-34.940577,501.46487)"
       style="fill:none;stroke:url(#linearGradient14)">
      <path
         id="path463-0-2-5-1-7-5-1"
         style="fill:none;fill-rule:nonzero;stroke:url(#linearGradient15);stroke-width:1.003;stroke-linecap:butt;stroke-linejoin:miter;stroke-dasharray:none;stroke-opacity:1"
         d="M 494.99943,376.50572 344.99999,289.90351 195.0006,376.50572 m 149.99942,-86.60221 v 173.2044 m 0,-173.2044 -99.99951,-3.4e-4 -49.99991,86.60255 99.99996,8e-5 z m 149.99941,86.60221 -99.99951,3.4e-4 -49.99991,-86.60255 99.99996,-8e-5 z m -149.99941,86.60219 -50.00005,-86.60194 50.00005,-86.60246 50.00004,86.60246 z M 494.99943,203.30122 344.99999,289.90343 195.0006,203.30122 m 149.99942,86.60221 V 116.69902 m 0,173.20441 -99.99951,3.4e-4 -49.99991,-86.60255 99.99996,-8e-5 z m 0,-173.20441 149.99941,86.6022 v 173.20509 l -149.99941,86.6022 -149.99943,-86.6022 V 203.30122 Z m 149.99941,86.6022 -99.99951,-3.4e-4 -49.99991,86.60255 99.99996,8e-5 z m -149.99941,-86.6022 -50.00005,86.60195 50.00005,86.60246 50.00004,-86.60246 z M 794.99826,376.50571 644.99882,289.9035 494.99943,376.50571 M 644.99885,289.9035 v 173.2044 m 0,-173.2044 -99.99951,-3.4e-4 -49.99991,86.60255 99.99996,8e-5 z m 149.99941,86.60221 -99.99951,3.4e-4 -49.99991,-86.60255 99.99996,-8e-5 z M 644.99885,463.1079 594.9988,376.50596 644.99885,289.9035 694.99889,376.50596 Z M 794.99826,203.30121 644.99882,289.90342 494.99943,203.30121 m 149.99942,86.60221 V 116.69901 m 0,173.20441 -99.99951,3.4e-4 -49.99991,-86.60255 99.99996,-8e-5 z m 0,-173.20441 149.99941,86.6022 V 376.5063 L 644.99885,463.1085 494.99942,376.5063 V 203.30121 Z m 149.99941,86.6022 -99.99951,-3.4e-4 -49.99991,86.60255 99.99996,8e-5 z m -149.99941,-86.6022 -50.00005,86.60195 50.00005,86.60246 50.00004,-86.60246 z M 944.99769,116.69843 794.99825,30.09622 644.99886,116.69843 M 794.99828,30.09622 v 173.2044 m 0,-173.2044 -99.99951,-3.4e-4 -49.99991,86.60255 99.99996,8e-5 z m 149.99941,86.60221 -99.99951,3.4e-4 -49.99991,-86.60255 99.99996,-8e-5 z m -149.99941,86.60219 -50.00005,-86.60194 50.00005,-86.60246 50.00004,86.60246 z M 944.99769,-56.50607 794.99825,30.09614 644.99886,-56.50607 m 149.99942,86.60221 v -173.20441 m 0,173.20441 -99.99951,3.4e-4 -49.99991,-86.60255 99.99996,-8e-5 z m 0,-173.20441 149.99941,86.6022 v 173.20509 l -149.99941,86.6022 -149.99943,-86.6022 V -56.50607 Z m 149.99941,86.6022 -99.99951,-3.4e-4 -49.99991,86.60255 99.99996,8e-5 z m -149.99941,-86.6022 -50.00005,86.60195 50.00005,86.60246 50.00004,-86.60246 z M 345.00001,116.69843 195.00057,30.09622 45.00118,116.69843 M 195.0006,30.09622 v 173.2044 m 0,-173.2044 -99.99951,-3.4e-4 -49.99991,86.60255 99.99996,8e-5 z m 149.99941,86.60221 -99.99951,3.4e-4 -49.99991,-86.60255 99.99996,-8e-5 z M 195.0006,203.30062 145.00055,116.69868 195.0006,30.09622 245.00064,116.69868 Z M 345.00001,-56.50607 195.00057,30.09614 45.00118,-56.50607 M 195.0006,30.09614 v -173.20441 m 0,173.20441 -99.99951,3.4e-4 -49.99991,-86.60255 99.99996,-8e-5 z m 0,-173.20441 149.99941,86.6022 V 116.69902 L 195.0006,203.30122 45.00117,116.69902 V -56.50607 Z m 149.99941,86.6022 -99.99951,-3.4e-4 -49.99991,86.60255 99.99996,8e-5 z m -149.99941,-86.6022 -50.00005,86.60195 50.00005,86.60246 50.00004,-86.60246 z M 644.99884,116.69902 494.9994,30.09681 345.00001,116.69902 M 494.99943,30.09681 v 173.2044 m 0,-173.2044 -99.99951,-3.4e-4 -49.99991,86.60255 99.99996,8e-5 z m 149.99941,86.60221 -99.99951,3.4e-4 -49.99991,-86.60255 99.99996,-8e-5 z m -149.99941,86.60219 -50.00005,-86.60194 50.00005,-86.60246 50.00004,86.60246 z M 644.99884,-56.50548 494.9994,30.09673 345.00001,-56.50548 m 149.99942,86.60221 v -173.20441 m 0,173.20441 -99.99951,3.4e-4 -49.99991,-86.60255 99.99996,-8e-5 z m 0,-173.20441 149.99941,86.6022 V 116.69961 L 494.99943,203.30181 345,116.69961 V -56.50548 Z m 149.99941,86.6022 -99.99951,-3.4e-4 -49.99991,86.60255 99.99996,8e-5 z m -149.99941,-86.6022 -50.00005,86.60195 50.00005,86.60246 50.00004,-86.60246 z m 299.99884,-0.001 -149.99944,-86.60221 -149.99939,86.60221 m 149.99942,-86.60221 v 173.2044 m 0,-173.2044 -99.99951,-3.4e-4 -49.99991,86.60255 99.99996,8e-5 z m 149.99941,86.60221 -99.99951,3.4e-4 -49.99991,-86.60255 99.99996,-8e-5 z m -149.99941,86.60219 -50.00005,-86.60194 50.00005,-86.60246 50.00004,86.60246 z m 149.99941,-259.80669 -149.99944,86.60221 -149.99939,-86.60221 m 149.99942,86.60221 v -173.20441 m 0,173.20441 -99.99951,3.4e-4 -49.99991,-86.60255 99.99996,-8e-5 z m 0,-173.20441 149.99941,86.6022 v 173.20509 l -149.99941,86.6022 -149.99943,-86.6022 v -173.20509 z m 149.99941,86.6022 -99.99951,-3.4e-4 -49.99991,86.60255 99.99996,8e-5 z m -149.99941,-86.6022 -50.00005,86.60195 50.00005,86.60246 50.00004,-86.60246 z M 494.99943,-143.10809 344.99999,-229.7103 195.0006,-143.10809 m 149.99942,-86.60221 v 173.2044 m 0,-173.2044 -99.99951,-3.4e-4 -49.99991,86.60255 99.99996,8e-5 z m 149.99941,86.60221 -99.99951,3.4e-4 -49.99991,-86.60255 99.99996,-8e-5 z m -149.99941,86.60219 -50.00005,-86.60194 50.00005,-86.60246 50.00004,86.60246 z m 149.99941,-259.80669 -149.99944,86.60221 -149.99939,-86.60221 m 149.99942,86.60221 v -173.20441 m 0,173.20441 -99.99951,3.4e-4 -49.99991,-86.60255 99.99996,-8e-5 z m 0,-173.20441 149.99941,86.6022 v 173.20509 l -149.99941,86.6022 -149.99943,-86.6022 v -173.20509 z m 149.99941,86.6022 -99.99951,-3.4e-4 -49.99991,86.60255 99.99996,8e-5 z m -149.99941,-86.6022 -50.00005,86.60195 50.00005,86.60246 50.00004,-86.60246 z" />
    </g>
  </g>
</svg>
